<?xml version="1.0" encoding="UTF-8" standalone="no"?>
<svg
   width="750"
   height="750"
   version="1.1"
   id="svg5"
   xmlns:inkscape="http://www.inkscape.org/namespaces/inkscape"
   xmlns:sodipodi="http://sodipodi.sourceforge.net/DTD/sodipodi-0.dtd"
   xmlns="http://www.w3.org/2000/svg"
   xmlns:svg="http://www.w3.org/2000/svg">
  <sodipodi:namedview
     id="namedview5"
     pagecolor="#ffffff"
     bordercolor="#000000"
     borderopacity="0.25"
     inkscape:showpageshadow="2"
     inkscape:pageopacity="0.0"
     inkscape:pagecheckerboard="0"
     inkscape:deskcolor="#d1d1d1" />
  <defs
     id="defs1" />
  <style
     id="style1" />
  <g
     transform="translate(0, 111.38084883023396) scale(0.9375)"
     id="g5">
    <g
       transform="translate(207.5, 0) scale(1 1) rotate(0)"
       fill="#ff6300"
       id="g3">
      <svg
         width="385"
         height="400"
         viewBox="0 0 385 400"
         version="1.1"
         id="svg2">
        <defs
           id="defs2" />
        <g
           id="g2">
          <path
             style="stroke: none; stroke-width: 1; stroke-dasharray: none; stroke-linecap: butt; stroke-dashoffset: 0; stroke-linejoin: miter; stroke-miterlimit: 4;  fill-rule: nonzero; opacity: 1"
             d="M 179.17948489675257,11.371900826446277 C 172.7001460537773,17.652892561983485 153.98940225212442,35.7685950413223 137.65882373972772,51.57024793388429 C 121.26212952485172,67.37190082644628 94.81584853311618,92.8264462809917 78.88196423559549,108.09917355371898 C 43.70841051658722,141.61983471074385 -0.5891101445697817,185.52066115702485 0.0059311777442445646,186.1818181818182 C 0.2703939876615937,186.3801652892562 6.419154318240107,186.84297520661156 13.757997293446714,187.10743801652893 C 21.030724566174,187.37190082644625 27.179484896752513,187.7685950413223 27.37783200419053,187.96694214876032 C 27.576179111628555,188.16528925619835 27.906757624025232,194.77685950413223 28.17122043394258,202.7768595041323 L 28.63403035129796,217.1900826446281 L 125.69188159096738,217.38842975206612 C 187.11336919427322,217.4545454545455 223.2125427479922,217.32231404958674 223.87369977278564,216.85950413223142 C 224.7993196074964,216.33057851239673 220.10510473146326,211.3719008264463 196.1051047314633,187.50413223140498 C 180.17122043394266,171.702479338843 167.14642704551284,158.34710743801648 167.14642704551284,157.7520661157025 C 167.14642704551284,156.62809917355372 189.22907167361205,134.14876033057848 191.54312126038894,132.95867768595042 C 192.66708820253774,132.297520661157 194.18774935956242,133.48760330578514 204.3034518389013,142.94214876033055 C 236.23733613642196,173.0247933884298 309.9563444008848,245.75206611570252 309.9563444008848,247.1404958677686 C 309.9563444008848,247.6694214876033 299.3117163017113,258.77685950413223 286.3530386157608,271.8677685950413 C 260.237336136422,298.11570247933884 196.1051047314633,360.9917355371901 193.72493944220713,362.71074380165294 C 192.2703939876617,363.702479338843 192.07204688022364,363.6363636363636 189.09684026865335,361.1900826446281 C 187.3778320041905,359.801652892562 181.3613030785707,354.1818181818182 175.80758407030623,348.6280991735537 L 165.55965018600875,338.5785123966942 L 195.44394770666986,308.495867768595 C 211.90675762402532,291.9669421487603 225.32824522733108,278.1487603305785 225.32824522733108,277.8181818181818 C 225.32824522733108,276.76033057851237 178.91502208683517,276.297520661157 101.69188159096741,276.495867768595 L 28.63403035129796,276.694214876033 L 28.435683243859934,300.8264462809917 C 28.369567541380604,314.11570247933884 28.501798946339306,336.0 28.832377458735984,349.48760330578517 L 29.295187376091356,374.0165289256198 L 31.741468367826876,378.90909090909093 C 35.77452621906659,386.90909090909093 43.047253491793825,394.7107438016529 49.196013822372336,397.4214876033058 C 50.716674979397155,398.08264462809916 54.94807993807484,398.9421487603306 59.11336919427316,399.33884297520666 C 63.807584070306234,399.73553719008265 111.80758407030628,400.0 197.03072456617406,400.0 L 327.74146836782694,400.0 L 333.82411299592616,396.89256198347107 C 341.0307245661741,393.19008264462815 344.9976667149344,389.4876033057851 348.8984931612154,383.00826446280996 C 353.85717084716583,374.6776859504132 353.5927080372484,377.8512396694215 354.2538650620419,318.6776859504132 C 354.5844435744385,289.3884297520661 354.84890638435587,247.99999999999997 354.9150220868352,226.57851239669424 L 354.9150220868352,187.7685950413223 L 369.4604766322898,187.7685950413223 C 380.63403035129807,187.7685950413223 384.00593117774434,187.57024793388427 384.00593117774434,186.9752066115703 C 384.00593117774434,186.51239669421486 371.4439477066699,173.5537190082645 356.10510473146337,158.21487603305783 L 328.138162582703,130.24793388429748 L 327.939815475265,80.66115702479333 L 327.74146836782694,31.074380165289185 L 304.2703939876617,31.074380165289185 L 280.8654353099757,31.074380165289185 L 280.73320390501704,58.6446280991735 L 280.53485679757904,86.28099173553719 L 251.57617911162862,57.8512396694215 C 213.36130307857076,20.429752066115633 192.20427828518228,0.0 191.60923696286824,0.0 C 191.27865845047154,0.0 185.72493944220707,5.1570247933884374 179.17948489675257,11.371900826446277"
             class="c1"
             id="i1" />
        </g>
      </svg>
    </g>
    <g
       transform="translate(-7.198560287942412, 561.4277144571086) rotate(0)"
       id="g4">
      <path
         d="M 15.3,0 V -118.95 H 34.2 V 0 Z m 64.049989,0 v -102.6 h -28.95 v -16.35 h 76.650001 v 16.35 H 98.249989 V 0 Z m 64.499931,-88.05 h -8.85 v -39.9 h 14.7 V -111 Z m 69.74996,19.8 q 13.95,0 21.3,6.45 7.35,6.3 7.35,18.75 v 18.3 q 0,12.75 -7.2,19.35 -7.05,6.45 -21,6.15 l -45.9,-0.75 v -16.35 h 52.35 q 2.4,0 2.4,-2.4 v -30 q 0,-2.4 -2.4,-2.4 h -26.7 q -13.95,0 -21.15,-6.15 -7.05,-6.15 -7.05,-18.9 v -17.7 q 0,-12.45 7.35,-19.2 7.35,-6.9 21.3,-6.6 l 43.65,0.75 v 16.35 h -50.55 q -2.4,0 -2.4,2.55 v 29.4 q 0,2.4 2.4,2.4 z M 363.59985,0 l -6.75,-29.85 h -45.45 l -7.65,29.85 h -17.55 l 27.15,-100.35 q 2.1,-7.65 4.35,-11.7 2.25,-4.2 6.45,-5.85 4.2,-1.65 11.7,-1.5 l 18.6,0.45 28.05,118.95 z m -33.75,-100.65 -14.4,54.6 h 37.8 l -13.05,-56.7 h -8.25 q -1.8,0 -2.1,2.1 z M 460.34984,0 h -63.15 v -118.95 h 18.9 v 102.6 h 44.25 z m 77.09998,0 h -63.15 v -118.95 h 18.9 v 102.6 h 44.25 z m 115.49989,0 -6.75,-29.85 h -45.45 l -7.65,29.85 h -17.55 l 27.15,-100.35 q 2.1,-7.65 4.35,-11.7 2.25,-4.2 6.45,-5.85 4.2,-1.65 11.7,-1.5 l 18.6,0.45 28.05,118.95 z m -33.75,-100.65 -14.4,54.6 h 37.8 l -13.05,-56.7 h -8.25 q -1.8,0 -2.1,2.1 z M 737.99969,0.75 686.54969,0 v -118.95 l 49.2,-0.75 q 13.8,-0.3 20.85,6.3 7.2,6.45 7.2,19.2 v 15.15 q 0,12.9 -9.45,18.15 6.15,2.4 9.15,7.35 3,4.8 3,12.75 v 15.75 q 0,12.45 -7.35,19.2 -7.2,6.75 -21.15,6.6 z m 4.05,-104.25 h -36.6 v 35.25 h 36.6 q 2.55,0 2.55,-2.4 v -30.45 q 0,-2.4 -2.55,-2.4 z m 2.85,50.85 h -39.45 v 37.05 h 39.45 q 2.4,0 2.4,-2.4 v -32.25 q 0,-2.4 -2.4,-2.4 z m 44.09994,-43.8 q 0,-12.45 6.45,-18.15 6.6,-5.7 20.25,-5.7 h 30.9 q 13.5,0 20.1,5.7 6.6,5.7 6.6,18.15 v 74.1 q 0,12.3 -6.6,18 -6.6,5.7 -20.1,5.7 h -30.9 q -13.65,0 -20.25,-5.7 -6.45,-5.7 -6.45,-18 z m 21.15,-6.9 q -1.95,0 -1.95,1.95 v 83.85 q 0,1.95 1.95,1.95 h 41.85 q 1.95,0 1.95,-1.95 v -83.85 q 0,-1.95 -1.95,-1.95 z M 922.34972,1.35 q -13.65,0 -20.25,-5.7 -6.45,-5.7 -6.45,-18 v -96.6 h 19.2 v 101.4 q 0,1.95 1.95,1.95 h 41.4 q 1.95,0 1.95,-1.95 v -101.4 h 19.35 v 96.6 q 0,12.3 -6.6,18 -6.6,5.7 -20.1,5.7 z M 1020.4497,0 v -102.6 h -28.94997 v -16.35 h 76.64997 v 16.35 h -28.8 V 0 Z m 183.7499,-118.95 q 6.75,0 9.45,3 2.85,2.85 2.85,9.3 V 0 h -18.15 v -89.55 l -27.45,53.1 h -11.1 l -26.55,-52.5 V 0 h -16.65 v -118.95 h 10.2 q 4.95,0 7.2,1.65 2.25,1.5 4.2,5.7 l 28.35,54.3 31.95,-61.65 z m 35.4,22.5 q 0,-12.45 6.45,-18.15 6.6,-5.7 20.25,-5.7 h 30.9 q 13.5,0 20.1,5.7 6.6,5.7 6.6,18.15 v 74.1 q 0,12.3 -6.6,18 -6.6,5.7 -20.1,5.7 h -30.9 q -13.65,0 -20.25,-5.7 -6.45,-5.7 -6.45,-18 z m 21.15,-6.9 q -1.95,0 -1.95,1.95 v 83.85 q 0,1.95 1.95,1.95 h 41.85 q 1.95,0 1.95,-1.95 v -83.85 q 0,-1.95 -1.95,-1.95 z m 123,103.8 -19.5,-0.45 -27.45,-118.95 h 18.6 l 23.25,102.6 h 7.5 q 1.8,0 1.95,-2.1 l 24.9,-100.5 h 17.7 l -25.65,99.9 q -1.95,7.95 -4.05,12.3 -2.1,4.2 -6,5.7 -3.9,1.5 -11.25,1.5 z M 1447.4997,0 v -118.95 h 18.9 V 0 Z m 114.3,-118.95 h 16.35 V 0 h -13.2 l -54.9,-84.6 V 0 h -16.35 v -118.95 h 13.05 l 55.05,84.75 z m 66.3,120.3 q -13.65,0 -20.25,-5.7 -6.45,-5.7 -6.45,-18 v -74.1 q 0,-12.45 6.45,-18.15 6.6,-5.7 20.25,-5.7 h 51 v 16.95 h -56.55 q -1.95,0 -1.95,1.95 v 83.85 q 0,1.95 1.95,1.95 h 38.4 q 2.1,0 2.1,-1.95 v -30.3 h -18.9 v -15.9 h 37.2 v 41.4 q 0,12.3 -6.6,18 -6.6,5.7 -20.25,5.7 z"
         id="text3"
         style="font-size:150px;font-family:f41316;fill:#ff6300"
         transform="scale(0.47990402)"
         aria-label="IT'S ALL ABOUT MOVING" />
    </g>
  </g>
</svg>
