<?xml version="1.0" encoding="UTF-8" standalone="no"?>
<svg
   width="1500"
   height="1500"
   version="1.1"
   id="svg4"
   xmlns:inkscape="http://www.inkscape.org/namespaces/inkscape"
   xmlns:sodipodi="http://sodipodi.sourceforge.net/DTD/sodipodi-0.dtd"
   xmlns="http://www.w3.org/2000/svg"
   xmlns:svg="http://www.w3.org/2000/svg">
  <sodipodi:namedview
     id="namedview4"
     pagecolor="#ffffff"
     bordercolor="#000000"
     borderopacity="0.25"
     inkscape:showpageshadow="2"
     inkscape:pageopacity="0.0"
     inkscape:pagecheckerboard="0"
     inkscape:deskcolor="#d1d1d1" />
  <defs
     id="defs1" />
  <style
     id="style1" />
  <g
     transform="translate(337.5, 321.42857142857144) scale(2.142857142857143)"
     id="g4">
    <g
       transform="translate(0, 0) scale(1 1) rotate(0)"
       fill="#ff6300"
       id="g3">
      <svg
         width="385"
         height="400"
         viewBox="0 0 385 400"
         version="1.1"
         id="svg2">
        <defs
           id="defs2" />
        <g
           id="g2">
          <path
             style="stroke: none; stroke-width: 1; stroke-dasharray: none; stroke-linecap: butt; stroke-dashoffset: 0; stroke-linejoin: miter; stroke-miterlimit: 4;  fill-rule: nonzero; opacity: 1"
             d="M 179.17948489675257,11.371900826446277 C 172.7001460537773,17.652892561983485 153.98940225212442,35.7685950413223 137.65882373972772,51.57024793388429 C 121.26212952485172,67.37190082644628 94.81584853311618,92.8264462809917 78.88196423559549,108.09917355371898 C 43.70841051658722,141.61983471074385 -0.5891101445697817,185.52066115702485 0.0059311777442445646,186.1818181818182 C 0.2703939876615937,186.3801652892562 6.419154318240107,186.84297520661156 13.757997293446714,187.10743801652893 C 21.030724566174,187.37190082644625 27.179484896752513,187.7685950413223 27.37783200419053,187.96694214876032 C 27.576179111628555,188.16528925619835 27.906757624025232,194.77685950413223 28.17122043394258,202.7768595041323 L 28.63403035129796,217.1900826446281 L 125.69188159096738,217.38842975206612 C 187.11336919427322,217.4545454545455 223.2125427479922,217.32231404958674 223.87369977278564,216.85950413223142 C 224.7993196074964,216.33057851239673 220.10510473146326,211.3719008264463 196.1051047314633,187.50413223140498 C 180.17122043394266,171.702479338843 167.14642704551284,158.34710743801648 167.14642704551284,157.7520661157025 C 167.14642704551284,156.62809917355372 189.22907167361205,134.14876033057848 191.54312126038894,132.95867768595042 C 192.66708820253774,132.297520661157 194.18774935956242,133.48760330578514 204.3034518389013,142.94214876033055 C 236.23733613642196,173.0247933884298 309.9563444008848,245.75206611570252 309.9563444008848,247.1404958677686 C 309.9563444008848,247.6694214876033 299.3117163017113,258.77685950413223 286.3530386157608,271.8677685950413 C 260.237336136422,298.11570247933884 196.1051047314633,360.9917355371901 193.72493944220713,362.71074380165294 C 192.2703939876617,363.702479338843 192.07204688022364,363.6363636363636 189.09684026865335,361.1900826446281 C 187.3778320041905,359.801652892562 181.3613030785707,354.1818181818182 175.80758407030623,348.6280991735537 L 165.55965018600875,338.5785123966942 L 195.44394770666986,308.495867768595 C 211.90675762402532,291.9669421487603 225.32824522733108,278.1487603305785 225.32824522733108,277.8181818181818 C 225.32824522733108,276.76033057851237 178.91502208683517,276.297520661157 101.69188159096741,276.495867768595 L 28.63403035129796,276.694214876033 L 28.435683243859934,300.8264462809917 C 28.369567541380604,314.11570247933884 28.501798946339306,336.0 28.832377458735984,349.48760330578517 L 29.295187376091356,374.0165289256198 L 31.741468367826876,378.90909090909093 C 35.77452621906659,386.90909090909093 43.047253491793825,394.7107438016529 49.196013822372336,397.4214876033058 C 50.716674979397155,398.08264462809916 54.94807993807484,398.9421487603306 59.11336919427316,399.33884297520666 C 63.807584070306234,399.73553719008265 111.80758407030628,400.0 197.03072456617406,400.0 L 327.74146836782694,400.0 L 333.82411299592616,396.89256198347107 C 341.0307245661741,393.19008264462815 344.9976667149344,389.4876033057851 348.8984931612154,383.00826446280996 C 353.85717084716583,374.6776859504132 353.5927080372484,377.8512396694215 354.2538650620419,318.6776859504132 C 354.5844435744385,289.3884297520661 354.84890638435587,247.99999999999997 354.9150220868352,226.57851239669424 L 354.9150220868352,187.7685950413223 L 369.4604766322898,187.7685950413223 C 380.63403035129807,187.7685950413223 384.00593117774434,187.57024793388427 384.00593117774434,186.9752066115703 C 384.00593117774434,186.51239669421486 371.4439477066699,173.5537190082645 356.10510473146337,158.21487603305783 L 328.138162582703,130.24793388429748 L 327.939815475265,80.66115702479333 L 327.74146836782694,31.074380165289185 L 304.2703939876617,31.074380165289185 L 280.8654353099757,31.074380165289185 L 280.73320390501704,58.6446280991735 L 280.53485679757904,86.28099173553719 L 251.57617911162862,57.8512396694215 C 213.36130307857076,20.429752066115633 192.20427828518228,0.0 191.60923696286824,0.0 C 191.27865845047154,0.0 185.72493944220707,5.1570247933884374 179.17948489675257,11.371900826446277"
             class="c1"
             id="i1" />
        </g>
      </svg>
    </g>
  </g>
</svg>
